<svg width="96" height="96" viewBox="0 0 96 96" fill="none" xmlns="http://www.w3.org/2000/svg">
  <defs>
    <linearGradient id="stats-bg" x1="14" y1="10" x2="82" y2="88" gradientUnits="userSpaceOnUse">
      <stop offset="0" stop-color="#0E63C8"/>
      <stop offset="1" stop-color="#2E8BEE"/>
    </linearGradient>
    <linearGradient id="stats-line" x1="24" y1="24" x2="72" y2="24" gradientUnits="userSpaceOnUse">
      <stop offset="0" stop-color="#BFE2FF"/>
      <stop offset="1" stop-color="#FFFFFF"/>
    </linearGradient>
  </defs>
  <rect x="8" y="8" width="80" height="80" rx="18" fill="url(#stats-bg)"/>
  <path d="M24 66H72" stroke="white" stroke-opacity="0.2" stroke-width="3" stroke-linecap="round"/>
  <rect x="24" y="46" width="9" height="20" rx="4.5" fill="white" fill-opacity="0.95"/>
  <rect x="42" y="35" width="9" height="31" rx="4.5" fill="white" fill-opacity="0.95"/>
  <rect x="60" y="26" width="9" height="40" rx="4.5" fill="white" fill-opacity="0.95"/>
  <path d="M24 33C29.2 30.6 34.4 30.8 39.2 28.4C45 25.6 49.6 20 55.8 20C61.2 20 65.4 23 72 27" stroke="url(#stats-line)" stroke-width="4" stroke-linecap="round" stroke-linejoin="round"/>
  <circle cx="24" cy="33" r="3.5" fill="#BFE2FF"/>
  <circle cx="39" cy="28" r="3.5" fill="#D9EEFF"/>
  <circle cx="56" cy="20" r="3.5" fill="white"/>
  <circle cx="72" cy="27" r="3.5" fill="#D9EEFF"/>
</svg>
